<svg xmlns="http://www.w3.org/2000/svg" version="1.1" xmlns:xlink="http://www.w3.org/1999/xlink" xmlns:svgjs="http://svgjs.dev/svgjs" width="80" height="80"><svg width="80" height="80" viewBox="0 0 80 80" fill="none" xmlns="http://www.w3.org/2000/svg">
<rect width="80" height="80" rx="40" fill="white"></rect>
<path d="M24.4922 21.5H56.8045C58.7375 21.5 60.3045 23.067 60.3045 25V55.0006C60.3045 56.9336 58.7375 58.5007 56.8045 58.5007H24.4922V21.5Z" fill="#193465"></path>
<path d="M24.4922 21.5H56.8045C58.7375 21.5 60.3045 23.067 60.3045 25V55.0006C60.3045 56.9336 58.7375 58.5007 56.8045 58.5007H24.4922V21.5Z" stroke="#10B269"></path>
<path d="M43.2584 47.2402C42.1784 47.2402 41.1718 47.0669 40.2384 46.7202C39.3184 46.3602 38.5184 45.8536 37.8384 45.2002C37.1584 44.5469 36.6251 43.7802 36.2384 42.9002C35.8651 42.0202 35.6784 41.0536 35.6784 40.0002C35.6784 38.9469 35.8651 37.9802 36.2384 37.1002C36.6251 36.2202 37.1584 35.4536 37.8384 34.8002C38.5318 34.1469 39.3384 33.6469 40.2584 33.3002C41.1784 32.9402 42.1851 32.7602 43.2784 32.7602C44.4918 32.7602 45.5851 32.9736 46.5584 33.4002C47.5451 33.8136 48.3718 34.4269 49.0384 35.2402L46.9584 37.1602C46.4784 36.6136 45.9451 36.2069 45.3584 35.9402C44.7718 35.6602 44.1318 35.5202 43.4384 35.5202C42.7851 35.5202 42.1851 35.6269 41.6384 35.8402C41.0918 36.0536 40.6184 36.3602 40.2184 36.7602C39.8184 37.1602 39.5051 37.6336 39.2784 38.1802C39.0651 38.7269 38.9584 39.3336 38.9584 40.0002C38.9584 40.6669 39.0651 41.2736 39.2784 41.8202C39.5051 42.3669 39.8184 42.8402 40.2184 43.2402C40.6184 43.6402 41.0918 43.9469 41.6384 44.1602C42.1851 44.3736 42.7851 44.4802 43.4384 44.4802C44.1318 44.4802 44.7718 44.3469 45.3584 44.0802C45.9451 43.8002 46.4784 43.3802 46.9584 42.8202L49.0384 44.7402C48.3718 45.5536 47.5451 46.1736 46.5584 46.6002C45.5851 47.0269 44.4851 47.2402 43.2584 47.2402Z" fill="#10B269"></path>
<path d="M21.6093 59.0007C21.057 59.0007 20.6093 58.5529 20.6093 58.0007V56.6256H13.8906C13.3383 56.6256 12.8906 56.1779 12.8906 55.6256V42.3754H10.0312C9.47897 42.3754 9.03125 41.9277 9.03125 41.3754V38.6253C9.03125 38.073 9.47897 37.6253 10.0312 37.6253H12.8906V24.375C12.8906 23.8228 13.3383 23.375 13.8906 23.375H20.6093V22C20.6093 21.4477 21.057 21 21.6093 21H24.4687V40.0003V59.0007H21.6093Z" fill="#10B269"></path>
<path d="M60.0957 44.9199H70.9706C71.5229 44.9199 71.9706 45.3676 71.9706 45.9199V49.0093C71.9706 49.5616 71.5229 50.0093 70.9706 50.0093H60.0957V44.9199Z" fill="#10B269"></path>
<path d="M60.0957 30.5002H70.9706C71.5229 30.5002 71.9706 30.948 71.9706 31.5002V34.5896C71.9706 35.1419 71.5229 35.5896 70.9706 35.5896H60.0957V30.5002Z" fill="#10B269"></path>
</svg><style>@media (prefers-color-scheme: light) { :root { filter: none; } }
@media (prefers-color-scheme: dark) { :root { filter: none; } }
</style></svg>