<svg width="194" height="44" viewBox="0 0 194 44" fill="none" xmlns="http://www.w3.org/2000/svg">
<path d="M18.0996 0.5H177.28C179.213 0.5 180.78 2.067 180.78 4V40C180.78 41.933 179.213 43.5 177.28 43.5H18.0996V0.5Z" fill="#193465"/>
<path d="M18.0996 0.5H177.28C179.213 0.5 180.78 2.067 180.78 4V40C180.78 41.933 179.213 43.5 177.28 43.5H18.0996V0.5Z" stroke="#10B268"/>
<path d="M40.2995 29.24C39.2195 29.24 38.2128 29.0667 37.2795 28.72C36.3595 28.36 35.5595 27.8533 34.8795 27.2C34.1995 26.5467 33.6661 25.78 33.2795 24.9C32.9061 24.02 32.7195 23.0533 32.7195 22C32.7195 20.9467 32.9061 19.98 33.2795 19.1C33.6661 18.22 34.1995 17.4533 34.8795 16.8C35.5728 16.1467 36.3795 15.6467 37.2995 15.3C38.2195 14.94 39.2261 14.76 40.3195 14.76C41.5328 14.76 42.6261 14.9733 43.5995 15.4C44.5861 15.8133 45.4128 16.4267 46.0795 17.24L43.9995 19.16C43.5195 18.6133 42.9861 18.2067 42.3995 17.94C41.8128 17.66 41.1728 17.52 40.4795 17.52C39.8261 17.52 39.2261 17.6267 38.6795 17.84C38.1328 18.0533 37.6595 18.36 37.2595 18.76C36.8595 19.16 36.5461 19.6333 36.3195 20.18C36.1061 20.7267 35.9995 21.3333 35.9995 22C35.9995 22.6667 36.1061 23.2733 36.3195 23.82C36.5461 24.3667 36.8595 24.84 37.2595 25.24C37.6595 25.64 38.1328 25.9467 38.6795 26.16C39.2261 26.3733 39.8261 26.48 40.4795 26.48C41.1728 26.48 41.8128 26.3467 42.3995 26.08C42.9861 25.8 43.5195 25.38 43.9995 24.82L46.0795 26.74C45.4128 27.5533 44.5861 28.1733 43.5995 28.6C42.6261 29.0267 41.5261 29.24 40.2995 29.24ZM54.9888 29V26.9L54.7888 26.44V22.68C54.7888 22.0133 54.5822 21.4933 54.1688 21.12C53.7688 20.7467 53.1488 20.56 52.3088 20.56C51.7355 20.56 51.1688 20.6533 50.6088 20.84C50.0622 21.0133 49.5955 21.2533 49.2088 21.56L48.0888 19.38C48.6755 18.9667 49.3822 18.6467 50.2088 18.42C51.0355 18.1933 51.8755 18.08 52.7288 18.08C54.3688 18.08 55.6422 18.4667 56.5488 19.24C57.4555 20.0133 57.9088 21.22 57.9088 22.86V29H54.9888ZM51.7088 29.16C50.8688 29.16 50.1488 29.02 49.5488 28.74C48.9488 28.4467 48.4888 28.0533 48.1688 27.56C47.8488 27.0667 47.6888 26.5133 47.6888 25.9C47.6888 25.26 47.8422 24.7 48.1488 24.22C48.4688 23.74 48.9688 23.3667 49.6488 23.1C50.3288 22.82 51.2155 22.68 52.3088 22.68H55.1688V24.5H52.6488C51.9155 24.5 51.4088 24.62 51.1288 24.86C50.8622 25.1 50.7288 25.4 50.7288 25.76C50.7288 26.16 50.8822 26.48 51.1888 26.72C51.5088 26.9467 51.9422 27.06 52.4888 27.06C53.0088 27.06 53.4755 26.94 53.8888 26.7C54.3022 26.4467 54.6022 26.08 54.7888 25.6L55.2688 27.04C55.0422 27.7333 54.6288 28.26 54.0288 28.62C53.4288 28.98 52.6555 29.16 51.7088 29.16ZM61.1326 29V14.16H64.2526V29H61.1326ZM72.7482 29.16C71.5882 29.16 70.5549 28.9267 69.6482 28.46C68.7415 27.98 68.0282 27.32 67.5082 26.48C67.0015 25.64 66.7482 24.6867 66.7482 23.62C66.7482 22.54 67.0015 21.5867 67.5082 20.76C68.0282 19.92 68.7415 19.2667 69.6482 18.8C70.5549 18.32 71.5882 18.08 72.7482 18.08C73.8815 18.08 74.8682 18.32 75.7082 18.8C76.5482 19.2667 77.1682 19.94 77.5682 20.82L75.1482 22.12C74.8682 21.6133 74.5149 21.24 74.0882 21C73.6749 20.76 73.2215 20.64 72.7282 20.64C72.1949 20.64 71.7149 20.76 71.2882 21C70.8615 21.24 70.5215 21.58 70.2682 22.02C70.0282 22.46 69.9082 22.9933 69.9082 23.62C69.9082 24.2467 70.0282 24.78 70.2682 25.22C70.5215 25.66 70.8615 26 71.2882 26.24C71.7149 26.48 72.1949 26.6 72.7282 26.6C73.2215 26.6 73.6749 26.4867 74.0882 26.26C74.5149 26.02 74.8682 25.64 75.1482 25.12L77.5682 26.44C77.1682 27.3067 76.5482 27.98 75.7082 28.46C74.8682 28.9267 73.8815 29.16 72.7482 29.16ZM84.3046 29.16C83.4113 29.16 82.6113 28.9867 81.9046 28.64C81.2113 28.2933 80.6713 27.7667 80.2846 27.06C79.8979 26.34 79.7046 25.4267 79.7046 24.32V18.24H82.8246V23.86C82.8246 24.7533 83.0113 25.4133 83.3846 25.84C83.7713 26.2533 84.3113 26.46 85.0046 26.46C85.4846 26.46 85.9113 26.36 86.2846 26.16C86.6579 25.9467 86.9513 25.6267 87.1646 25.2C87.3779 24.76 87.4846 24.2133 87.4846 23.56V18.24H90.6046V29H87.6446V26.04L88.1846 26.9C87.8246 27.6467 87.2913 28.2133 86.5846 28.6C85.8913 28.9733 85.1313 29.16 84.3046 29.16ZM93.8951 29V14.16H97.0151V29H93.8951ZM106.911 29V26.9L106.711 26.44V22.68C106.711 22.0133 106.504 21.4933 106.091 21.12C105.691 20.7467 105.071 20.56 104.231 20.56C103.657 20.56 103.091 20.6533 102.531 20.84C101.984 21.0133 101.517 21.2533 101.131 21.56L100.011 19.38C100.597 18.9667 101.304 18.6467 102.131 18.42C102.957 18.1933 103.797 18.08 104.651 18.08C106.291 18.08 107.564 18.4667 108.471 19.24C109.377 20.0133 109.831 21.22 109.831 22.86V29H106.911ZM103.631 29.16C102.791 29.16 102.071 29.02 101.471 28.74C100.871 28.4467 100.411 28.0533 100.091 27.56C99.7707 27.0667 99.6107 26.5133 99.6107 25.9C99.6107 25.26 99.764 24.7 100.071 24.22C100.391 23.74 100.891 23.3667 101.571 23.1C102.251 22.82 103.137 22.68 104.231 22.68H107.091V24.5H104.571C103.837 24.5 103.331 24.62 103.051 24.86C102.784 25.1 102.651 25.4 102.651 25.76C102.651 26.16 102.804 26.48 103.111 26.72C103.431 26.9467 103.864 27.06 104.411 27.06C104.931 27.06 105.397 26.94 105.811 26.7C106.224 26.4467 106.524 26.08 106.711 25.6L107.191 27.04C106.964 27.7333 106.551 28.26 105.951 28.62C105.351 28.98 104.577 29.16 103.631 29.16ZM117.454 29.16C116.188 29.16 115.201 28.84 114.494 28.2C113.788 27.5467 113.434 26.58 113.434 25.3V15.86H116.554V25.26C116.554 25.7133 116.674 26.0667 116.914 26.32C117.154 26.56 117.481 26.68 117.894 26.68C118.388 26.68 118.808 26.5467 119.154 26.28L119.994 28.48C119.674 28.7067 119.288 28.88 118.834 29C118.394 29.1067 117.934 29.16 117.454 29.16ZM111.774 20.88V18.48H119.234V20.88H111.774ZM126.686 29.16C125.793 29.16 124.993 28.9867 124.286 28.64C123.593 28.2933 123.053 27.7667 122.666 27.06C122.279 26.34 122.086 25.4267 122.086 24.32V18.24H125.206V23.86C125.206 24.7533 125.393 25.4133 125.766 25.84C126.153 26.2533 126.693 26.46 127.386 26.46C127.866 26.46 128.293 26.36 128.666 26.16C129.039 25.9467 129.333 25.6267 129.546 25.2C129.759 24.76 129.866 24.2133 129.866 23.56V18.24H132.986V29H130.026V26.04L130.566 26.9C130.206 27.6467 129.673 28.2133 128.966 28.6C128.273 28.9733 127.513 29.16 126.686 29.16ZM136.276 29V14.16H139.396V29H136.276ZM147.232 29.16C146.339 29.16 145.539 28.9867 144.832 28.64C144.139 28.2933 143.599 27.7667 143.212 27.06C142.825 26.34 142.632 25.4267 142.632 24.32V18.24H145.752V23.86C145.752 24.7533 145.939 25.4133 146.312 25.84C146.699 26.2533 147.239 26.46 147.932 26.46C148.412 26.46 148.839 26.36 149.212 26.16C149.585 25.9467 149.879 25.6267 150.092 25.2C150.305 24.76 150.412 24.2133 150.412 23.56V18.24H153.532V29H150.572V26.04L151.112 26.9C150.752 27.6467 150.219 28.2133 149.512 28.6C148.819 28.9733 148.059 29.16 147.232 29.16ZM156.082 29V27.12L162.442 19.6L162.982 20.64H156.222V18.24H165.502V20.12L159.142 27.64L158.582 26.6H165.682V29H156.082Z" fill="#10B268"/>
<path d="M14.2 44C13.6477 44 13.2 43.5523 13.2 43V41.25H5.4C4.84772 41.25 4.4 40.8023 4.4 40.25V24.75H1C0.447715 24.75 0 24.3023 0 23.75V20.25C0 19.6977 0.447715 19.25 1 19.25H4.4V3.75C4.4 3.19772 4.84772 2.75 5.4 2.75H13.2V1C13.2 0.447715 13.6477 0 14.2 0H17.6V22V44H14.2Z" fill="#10B268"/>
<path d="M181.281 26.3999H192.601C193.154 26.3999 193.601 26.8476 193.601 27.3999V30.6799C193.601 31.2322 193.154 31.6799 192.601 31.6799H181.281V26.3999Z" fill="#10B268"/>
<path d="M181.281 11.4399H192.601C193.154 11.4399 193.601 11.8877 193.601 12.4399V15.7199C193.601 16.2722 193.154 16.7199 192.601 16.7199H181.281V11.4399Z" fill="#10B268"/>
</svg>
