<svg width="63" height="38" viewBox="0 0 63 38" fill="none" xmlns="http://www.w3.org/2000/svg">
<path d="M47.7734 0.5C49.7063 0.500122 51.2734 2.06708 51.2734 4V34.001C51.2733 35.9337 49.7062 37.5009 47.7734 37.501H15.4609V0.5H47.7734Z" fill="#193465"/>
<path d="M47.7734 0.5C49.7063 0.500122 51.2734 2.06708 51.2734 4V34.001C51.2733 35.9337 49.7062 37.5009 47.7734 37.501H15.4609V0.5H47.7734Z" stroke="#10B269"/>
<path d="M34.2272 26.2402C33.1472 26.2402 32.1405 26.0669 31.2072 25.7202C30.2872 25.3602 29.4872 24.8536 28.8072 24.2002C28.1272 23.5469 27.5939 22.7802 27.2072 21.9002C26.8339 21.0202 26.6472 20.0536 26.6472 19.0002C26.6472 17.9469 26.8339 16.9802 27.2072 16.1002C27.5939 15.2202 28.1272 14.4536 28.8072 13.8002C29.5005 13.1469 30.3072 12.6469 31.2272 12.3002C32.1472 11.9402 33.1539 11.7602 34.2472 11.7602C35.4605 11.7602 36.5539 11.9736 37.5272 12.4002C38.5139 12.8136 39.3405 13.4269 40.0072 14.2402L37.9272 16.1602C37.4472 15.6136 36.9139 15.2069 36.3272 14.9402C35.7405 14.6602 35.1005 14.5202 34.4072 14.5202C33.7539 14.5202 33.1539 14.6269 32.6072 14.8402C32.0605 15.0536 31.5872 15.3602 31.1872 15.7602C30.7872 16.1602 30.4739 16.6336 30.2472 17.1802C30.0339 17.7269 29.9272 18.3336 29.9272 19.0002C29.9272 19.6669 30.0339 20.2736 30.2472 20.8202C30.4739 21.3669 30.7872 21.8402 31.1872 22.2402C31.5872 22.6402 32.0605 22.9469 32.6072 23.1602C33.1539 23.3736 33.7539 23.4802 34.4072 23.4802C35.1005 23.4802 35.7405 23.3469 36.3272 23.0802C36.9139 22.8002 37.4472 22.3802 37.9272 21.8202L40.0072 23.7402C39.3405 24.5536 38.5139 25.1736 37.5272 25.6002C36.5539 26.0269 35.4539 26.2402 34.2272 26.2402Z" fill="#10B269"/>
<path d="M12.5781 38.0007C12.0258 38.0007 11.5781 37.5529 11.5781 37.0007V35.6256H4.85935C4.30707 35.6256 3.85935 35.1779 3.85935 34.6256V21.3754H1C0.447715 21.3754 0 20.9277 0 20.3754V17.6253C0 17.073 0.447715 16.6253 1 16.6253H3.85935V3.37504C3.85935 2.82276 4.30707 2.37504 4.85935 2.37504H11.5781V1C11.5781 0.447715 12.0258 0 12.5781 0H15.4374V19.0003V38.0007H12.5781Z" fill="#10B269"/>
<path d="M51.0645 23.9199H61.9394C62.4917 23.9199 62.9394 24.3676 62.9394 24.9199V28.0093C62.9394 28.5616 62.4917 29.0093 61.9394 29.0093H51.0645V23.9199Z" fill="#10B269"/>
<path d="M51.0645 9.50024H61.9394C62.4917 9.50024 62.9394 9.94796 62.9394 10.5002V13.5896C62.9394 14.1419 62.4917 14.5896 61.9394 14.5896H51.0645V9.50024Z" fill="#10B269"/>
</svg>
